<svg width="9" height="9" viewBox="0 0 9 9" fill="none" xmlns="http://www.w3.org/2000/svg">
<path d="M5.53144 4.01093L7.81197 1.7304C8.09183 1.45054 8.09183 0.996808 7.81197 0.716726L7.30514 0.20989C7.02528 -0.0699634 6.57155 -0.0699634 6.29147 0.20989L4.01093 2.49042L1.7304 0.20989C1.45054 -0.0699634 0.996808 -0.0699634 0.716726 0.20989L0.20989 0.716726C-0.0699634 0.99658 -0.0699634 1.45032 0.20989 1.7304L2.49042 4.01093L0.20989 6.29147C-0.0699634 6.57132 -0.0699634 7.02505 0.20989 7.30514L0.716726 7.81197C0.99658 8.09183 1.45054 8.09183 1.7304 7.81197L4.01093 5.53144L6.29147 7.81197C6.57132 8.09183 7.02528 8.09183 7.30514 7.81197L7.81197 7.30514C8.09183 7.02528 8.09183 6.57155 7.81197 6.29147L5.53144 4.01093Z" fill="#BC0000"/>
</svg>
